<svg id="Layer_1" data-name="Layer 1" xmlns="http://www.w3.org/2000/svg" viewBox="0 0 520.87 307.6"><path d="M28,314.9c-2,.65-3,1-4.92,1.65V306.6c10.76-4.87,21.74-9.42,32.78-13.59,3.63-1.39,5.26.62,5.26,6.44v13.38c-3.69.84-5.53,1.27-9.2,2.14v-5c0-1.63-.61-2.38-1.69-2.06-4.93,1.46-7.38,2.21-12.26,3.75V331c7-1,10.55-1.51,17.66-2.45v13.24c-7.11.28-10.64.43-17.66.73v17.54c0,1.46.61,2.37,1.68,2.51,5,.65,7.53,1,12.58,1.6,1.08.13,1.7-.74,1.7-2.39V356.7c3.67.25,5.51.37,9.21.6v13.56c0,6-1.64,8.2-5.27,7.43-10-2.1-14.91-3.22-24.71-5.56-3.65-.88-5.16-3.15-5.16-7.68V314.9" transform="translate(-23.03 -102.13)"/><path d="M87.2,370.39c5.29.59,9.76-7.5,9.76-22.7,0-14.59-3.94-23.66-9.61-23-5,.56-9.63,7.68-9.63,23.14,0,10.81,3.14,21.87,9.48,22.59M68.5,331.16c0-2-.6-2.79-1.64-2.66l-3,.35V315.22c3.36-.69,5.05-1,8.44-1.69s4.8,1.94,4.8,5.76V322l.15,0s3.93-12.65,12.2-13.41c14.69-1.36,17.79,27.89,17.22,38.8s-2.17,40.19-17.75,38.7c-7-.67-11-11.3-11-11.3l-.15,0s.15,2.49.15,6.05v28.91c-3.78-1.28-5.67-1.94-9.44-3.28V331.16" transform="translate(-23.03 -102.13)"/><path d="M113,362.33s5,12.56,11.65,13.19c3,.28,5.73-2.72,5.3-8-1.2-14.81-21.39-20.45-21.11-39.87.23-15.93,7.51-23.7,15.65-24.92,5.3-.79,13.78,2.05,13.78,16.56v9.26l-8.63.49v-4.26c0-4.08-2.77-5.87-4.92-5.67-3.45.33-6.15,3.55-5.83,8.12,1.08,15.32,21.24,18.66,20.85,39.67-.32,16.52-6.57,26.5-15.09,25.23-10.75-1.61-16.22-16.93-16.22-16.93,1.82-5,2.74-7.61,4.57-12.84" transform="translate(-23.03 -102.13)"/><path d="M163.94,377.06c6.46.42,11.85-11.5,11.85-29.67,0-18-5.39-30.1-11.85-29.67s-11.73,12.61-11.73,29.67c0,17.24,5.35,29.24,11.73,29.67m0-79.49c17.08-1.17,21.85,35.66,21.85,49.82s-4.7,51-21.85,49.82c-15.65-1.07-21.64-34.76-21.64-49.82s6.08-48.76,21.64-49.82" transform="translate(-23.03 -102.13)"/><path d="M192.14,322.78c0-3-.63-4.31-1.73-4.26l-3.13.16v-21.1c3.66-.31,5.5-.46,9.17-.74s5.26,3.8,5.26,11v3c0,2.2-.08,4.4-.08,4.4h.16c1.88-10.07,6.67-21.68,13-22.08,6.06-.38,10,6.78,11.74,20.92h.16c2.13-11.39,8-22.62,13.73-22.25,13.43.87,12.83,30.32,13.2,40.26v41.76c0,2.94.64,4.63,1.74,4.64l3.09,0V401c-3.8-.09-5.7-.14-9.49-.26s-5.38-4.35-5.38-14.36V337.17c0-12.1-.87-21.27-5.53-21.16-5,.12-8.52,11.17-9.62,24.37a115.48,115.48,0,0,0-.64,13.39v46.14c-4-.2-6-.3-10-.54v-62c0-11.22-.63-20.78-5.43-20.6-5,.19-8.41,11-9.67,24-.39,4-.63,8.2-.63,12.79v44.77c-4-.28-5.93-.43-9.88-.75Z" transform="translate(-23.03 -102.13)"/><path d="M299,340q-2.52-18.81-5-37.63c-1.07-8.25-2.31-22.43-2.31-22.43h-.16s-1.24,14.16-2.31,22.41q-2.52,18.82-5,37.64H299M264.55,378.3h1.32c1.4,0,2.24-1.38,2.73-5.17q8.73-61,17.4-122c4.52,0,6.78,0,11.3.11q8.63,60.88,17.31,121.77c.5,3.77,1.15,4.61,2.56,4.58l1.31,0v23.28l-6.42.17c-4.12.09-5.61-2.62-6.93-12.1-1.45-10.44-2.17-15.67-3.62-26.13-7.92,0-11.88,0-19.8,0-1.45,10.49-2.17,15.73-3.62,26.21-1.32,9.51-2.72,12.26-6.85,12.21-2.6,0-4.09-.11-6.69-.16Z" transform="translate(-23.03 -102.13)"/><path d="M323.43,279.43c0-3.14-.66-4.63-1.81-4.68l-3.3-.13V252c4,.2,6,.31,10,.58s5.6,4.75,5.6,14.5V373.54c0,2.91.66,4.55,1.81,4.52l3.2-.08V400.1c-3.94.18-5.92.27-9.87.41s-5.59-4-5.59-14Z" transform="translate(-23.03 -102.13)"/><path d="M344.81,280.57c0-3.09-.66-4.57-1.81-4.65l-3.28-.21V253.4c4,.33,6,.51,9.93.9s5.58,4.84,5.58,14.4V373c0,2.84.66,4.45,1.81,4.41l3.19-.12v21.63c-3.93.25-5.9.37-9.84.59s-5.58-3.82-5.58-13.68Z" transform="translate(-23.03 -102.13)"/><path d="M368.18,366s5.32,14.75,12.42,14.37c3.18-.18,5.94-3.78,5.62-10-.88-17.12-21.67-25.14-22-46.66-.16-11.43,3.81-28.49,16.18-28.68,5.08-.08,14.58,5.75,14.58,21.62v10.14l-9.11-.36v-4.86c0-4.66-2.94-7.17-5.22-7.29-3.68-.2-6.39,3-6.21,8.79.55,17.32,20.12,24.86,22.48,46,1.69,15.17-3.76,29-16.35,30.78-10.74,1.53-17.34-17-17.34-17,2-6.77,2.95-10.14,4.92-16.83" transform="translate(-23.03 -102.13)"/><path d="M423.4,375.78c6.69-.51,12.23-12,12.23-28.39,0-16.21-5.54-27.88-12.23-28.39s-12.19,11.08-12.19,28.39c0,17.49,5.58,28.89,12.19,28.39m0-76.07c17.24,2.5,21.82,32.11,22.48,47.68.68,16-6.14,45-22.48,47.67-17.69,2.86-22-34-22.56-47.67s5.3-50.17,22.56-47.68" transform="translate(-23.03 -102.13)"/><path d="M455.13,327.21c0-2.42-.63-3.61-1.75-3.7l-3.19-.28V305.48c3.7.55,5.55.83,9.24,1.41s5.4,3.82,5.4,10.5v4.66c0,3-.16,5-.16,5l.16,0c1.82-11.2,6.66-19.25,12.8-18.14a8.28,8.28,0,0,1,1.81.62v18.21a10.11,10.11,0,0,0-2.44-.52c-4.25-.4-9.16,3.83-11,15.55a90.24,90.24,0,0,0-.88,12.86V387c-4,.65-6,1-10,1.58Z" transform="translate(-23.03 -102.13)"/><path d="M489.82,326.24l-5.18-.58V311.4l5.41,1V293.35c3.88,1.14,5.82,1.72,9.68,2.91v18c3.61.72,5.41,1.09,9,1.84v12.38c-3.59-.46-5.39-.68-9-1.12v26.74c0,10.9,5.13,11.85,7.84,11.52a6.33,6.33,0,0,0,1.78-.46v13.55a13.61,13.61,0,0,1-3,1c-5.51,1.16-16.51.45-16.51-23V326.24" transform="translate(-23.03 -102.13)"/><path d="M517.36,358s4.3,7.42,11,6.71c4.54-.48,6.13-4.58,5.39-6.7-2.61-7.5-19.76-10.1-20.07-24.48-.26-11.71,8.26-15.84,16.35-13.86,5.27,1.29,12.58,5.65,12.58,13.21,0,1.93-.14,2.73-.14,4.66l-8.49-.88v-2.48c0-2.38-2.74-4-4.88-4.33-3.44-.54-5.81.85-5.81,4.12,0,8.72,20.62,8.12,20.62,23.36,0,8.61-4.94,16.13-14.89,17.77a16.41,16.41,0,0,1-16.27-6.93c1.85-4.2,2.78-6.23,4.62-10.17" transform="translate(-23.03 -102.13)"/><path d="M281.11,231c72,0,134.68,7.56,167.36,18.74C420,234.79,361.65,217,282.52,217c-77.44,0-136.89,17.52-165.39,31.62C150.64,238,211.54,231,281.11,231" transform="translate(-23.03 -102.13)"/><path d="M237.05,134.18l-.55-.43a12.7,12.7,0,0,0,1.24-.74c.87-.68.87-1.22,0-1.93a2.56,2.56,0,0,1-1-2.17,13.81,13.81,0,0,1,1.63-6,4.45,4.45,0,0,1,2.13-1.63,5.46,5.46,0,0,1,6.75,2.28,11.59,11.59,0,0,1,.63,2.72c.13.69.16,1.4.29,2.1a3.55,3.55,0,0,1-.51,2.57c-.31.5-.42.82.16,1.17a2,2,0,0,1,.95,2.07,2.77,2.77,0,0,0,1,2.74.65.65,0,0,1,.17.58c-.16.43,0,.56.38.71a20,20,0,0,1,2.34,1.11,4.85,4.85,0,0,1,2,3.12c.15.49.5.93.61,1.42.26,1.16.43,2.34.64,3.51.11.64.24,1.28.36,1.92.27,1.46.62,2.9.8,4.36s.29,3.24.34,4.85a3,3,0,0,1-1.91,2.79c-.58.31-1-.16-1.4-.47a8.93,8.93,0,0,1-2.48-3.63c-.1-.23-.22-.44-.36-.72a44.19,44.19,0,0,0-1.13,4.46,7,7,0,0,0,.29,2.51c.36,1.74.86,3.46,1.18,5.2a13,13,0,0,1-.21,5.66,2.7,2.7,0,0,1-.54,1.1c-1.06,1.17-1.12,2.69-1.52,4.07-.46,1.63-.77,3.3-1.23,4.92a41,41,0,0,1-1.42,4.22c-.49,1.18-1.16,2.28-1.74,3.41a11.52,11.52,0,0,0-1.35,4.5,14.63,14.63,0,0,1-2.23,6.06,2.52,2.52,0,0,0-.28,1,29,29,0,0,0,0,3.23,12.35,12.35,0,0,0,.57,3.88,2.53,2.53,0,0,1-2.13,3.39,3.82,3.82,0,0,1-1.52-.27c-.49-.17-.73-.06-.72.44,0,1.19.1,2.37.16,3.56s.17,2.28.17,3.42c0,.66-.46,1-1.09,1.13a9.35,9.35,0,0,1-3.69-.08c-1.12-.23-2.1-2.25-1.65-3.38q.27-.69.6-1.38a5.07,5.07,0,0,0,.06-4,7.08,7.08,0,0,1-.35-2.52,2.3,2.3,0,0,1,1.23-2c.7-.49,1.59-.76,1.89-1.7a2,2,0,0,0,.13-.39c.3-2.26,1.12-4.42,1.12-6.75a26.73,26.73,0,0,1,.65-3.35c.22-1.61.33-3.24.47-4.85a9.08,9.08,0,0,0,0-1.38,13.24,13.24,0,0,1,1.62-6.66,2.66,2.66,0,0,0-.73-3.72q-2.18-1.87-4.39-3.71a8.83,8.83,0,0,1-2.72-4.35,9.71,9.71,0,0,1,.69-7.25,13.52,13.52,0,0,0,1.48-4.82,13.75,13.75,0,0,0-.57-4.73,35.23,35.23,0,0,1-.87-4.78,20,20,0,0,1,0-2.68c0-.72-.13-.78-.82-.66a6.34,6.34,0,0,0-3,1.67,9.6,9.6,0,0,1-1.8,1.24,1,1,0,0,0-.59,1.09,16.86,16.86,0,0,0,.91,5,1.09,1.09,0,0,1,.12.53c-.34,1.14.5,2,.68,3a2,2,0,0,0,1.63,1.57,1.18,1.18,0,0,1,1.09,1.33.65.65,0,0,0,.09.39.84.84,0,0,1-.18,1.18,14.22,14.22,0,0,1-2.32,1.36,5.7,5.7,0,0,1-1.69.39,2.93,2.93,0,0,1-2.52-1.4,1.79,1.79,0,0,1-.16-1.21c.24-1.76.37-3.46-.85-5a3.56,3.56,0,0,1-.59-1.57c-.21-1.16-.24-2.37-.52-3.51a16.74,16.74,0,0,1-.4-5.59,3.28,3.28,0,0,1,1.57-2.27c1.07-.77,2.05-1.68,3.08-2.5.5-.39,1.06-.7,1.57-1.08.25-.19.57-.42.62-.68.13-.64.6-.89,1.06-1.18a2.93,2.93,0,0,0,.92-.69,5.05,5.05,0,0,1,3-1.76c1.24-.39,2.46-.81,3.68-1.24.15-.05.38-.3.36-.34-.44-.8.25-1.21.62-1.81" transform="translate(-23.03 -102.13)"/><path d="M199.27,169l.84,2.51c.7,2.09,1.43,4.18,2.1,6.28a13.73,13.73,0,0,1,.43,2.12.81.81,0,0,1-.94,1c-.84-.06-1,.31-.95,1.08a14,14,0,0,1-.8,5.29c-.59,1.8-1.1,3.62-1.78,5.38s-1.48,3.55-2.31,5.29c-.74,1.53-1.62,3-2.38,4.5a10.14,10.14,0,0,0-1.26,6.69,1.77,1.77,0,0,1-.07.82,10,10,0,0,0,0,5.55,5.13,5.13,0,0,1,.11,1,.84.84,0,0,1-.94,1c-.55,0-1.1,0-1.65,0a1.84,1.84,0,0,0-.53.15c.19.76-.63,1.37-.23,2.21a2.65,2.65,0,0,1,0,1.8,6.13,6.13,0,0,0,0,4,3.63,3.63,0,0,1-.31,3.42,1.58,1.58,0,0,1-.92.66c-2.66.35-3.47-.33-4.52-2.94a3,3,0,0,1,.61-3.27.77.77,0,0,0,0-1.08,6.3,6.3,0,0,1-1.13-4.4,1.63,1.63,0,0,1,1.21-1.6c.31-.09.62-.2.94-.27,1-.22,1.11-.39,1.07-1.45a2.68,2.68,0,0,1,.29-1.34,5.48,5.48,0,0,0,.26-3c-.05-1.6-.12-3.2-.13-4.79a4.22,4.22,0,0,1,.26-1.09,13.32,13.32,0,0,1,.71-2.64,3.54,3.54,0,0,0,0-2.62,23,23,0,0,0-2.41-6.13c-1.2-2.1-2.35-4.23-3.37-6.42a7.29,7.29,0,0,1-.41-5.14c.59-2.09,1.3-4.14,1.9-6.22a11.73,11.73,0,0,0,.53-2.8c.07-2.63,0-5.25,0-7.88a2.26,2.26,0,0,0-.15-.73c-.18-.56-.5-.74-1.06-.38-.91.6-1.86,1.16-2.78,1.75-.12.08-.25.34-.2.43a3.74,3.74,0,0,1-.28,3.18,2.23,2.23,0,0,0,.2,1.85,7.52,7.52,0,0,1,.29,1.85c.11,1-.45,2,0,3.06.37.86-.37,1.53-.61,2.29,0,.14-.4.28-.59.25a14.5,14.5,0,0,1-1.94-.49.69.69,0,0,1-.4-.51c-.09-1.31-1-2.48-.62-3.87a.69.69,0,0,0-.1-.56,1.85,1.85,0,0,1-.11-2.05,2.27,2.27,0,0,0,.16-1.22,9.64,9.64,0,0,1,.14-5.19,11.24,11.24,0,0,0,.41-3.16,4.44,4.44,0,0,1,1.45-3.53,5.38,5.38,0,0,0,1.17-1.86,2.89,2.89,0,0,1,2.2-1.82c.7-.17,1.39-.38,2.09-.56a14.45,14.45,0,0,0,1.72-.44,1.25,1.25,0,0,0,.7-.61c.34-1.06.62-2.15.87-3.23a1.31,1.31,0,0,0-.13-.92,4.53,4.53,0,0,1-.49-3.32,7.08,7.08,0,0,0-.4-4,1,1,0,0,1,.43-1.41,5.47,5.47,0,0,1,3.71-.82,8.87,8.87,0,0,0,1.52-.18l0-.28-.66-.15c.17-.78.62-1,1.25-.52a4.08,4.08,0,0,0,.58.32c.94.41,1.91.78,2.82,1.24a1.55,1.55,0,0,1,.88,1.51,11.2,11.2,0,0,0,.39,2.2c.6-.69,1.11-.62,1.14.08a5.37,5.37,0,0,1-.13,1c.12,0,.18.08.22.07l.86-.23a4.09,4.09,0,0,1-.14,1c-.24.67.06,1.26,1.08,1.8L195.6,149a6.46,6.46,0,0,1,1.36,2.63l-.86-.11c0,.06-.07.12-.11.17.45.27.89.74,1.35.77,2.79.17,4.69,1.74,6.17,3.88a55.89,55.89,0,0,1,5.31,9.18,1.63,1.63,0,0,1-.9,2.38,9.06,9.06,0,0,0-1.24.53.92.92,0,0,0-.41.67c.19,1.33-.94,1.93-1.54,2.79-.14.19-1,.11-1.3-.11-1.16-.73-2.24-1.59-3.35-2.39-.21-.16-.43-.3-.64-.45l-.17.12" transform="translate(-23.03 -102.13)"/><path d="M287,129.44c0-.25-.06-.51-.09-.81h-1.1l.92-.88c-.25-1-1.85-.41-1.95-1.69l.85-.55-1.24-1,.7-.74-1.1-1.45.71-1c.23-1.32.43-2.43.63-3.54a2,2,0,0,0,1.25-1.48,4.21,4.21,0,0,1,1.72-2.68,1.53,1.53,0,0,1,.66,0c1.5.48,3.07.1,4.57.32a8.24,8.24,0,0,1,5.84,3.07,1.87,1.87,0,0,1,.23.47,10.84,10.84,0,0,1-.17,3.58,33.12,33.12,0,0,0-1.67,5.34,22.83,22.83,0,0,1-1.88,4.44c-.11.23-.26.44-.43.75a10,10,0,0,1,4.74,2.91c-.1,1.82.07,3.7-1.1,5.46-.59.9-.58,2.18-1,3.24-.61,1.7.09,2.93,1.18,4.13a10.31,10.31,0,0,0,3.63,3,7.75,7.75,0,0,1,1.25.79,6.8,6.8,0,0,1,.24,2.2,8.35,8.35,0,0,1-1.23,2.7c-.42.67-1.61.63-2.38,0a19.88,19.88,0,0,1-1.52-1.6v-2.26l-2-1.23a2.91,2.91,0,0,0,.1,2.8c1,2,.77,4,.73,6.06,0,.52,0,1,0,1.55a10.35,10.35,0,0,1-.14,2.09,4.24,4.24,0,0,0,.34,2.93,13.09,13.09,0,0,1,1.07,6.79,5.61,5.61,0,0,1-.5,1.36c.66,1.16,1.48,2.46.12,3.8.1.38.18.72.28,1.14-.35.25-.7.49-1.06.76-.34,1.53-.7,3.1-1,4.68A5.17,5.17,0,0,0,297,186c.08,2.37.18,4.74.28,7.11a1.68,1.68,0,0,0,0,.39c.91,2.95-.09,5.82-.42,8.7-.2,1.72-.51,3.45-.75,5.18-.11.81-.3,1.62-.49,2.42a2.3,2.3,0,0,0,.28,1.64c.31.57.54,1.18.84,1.84l2.08,1.05c.18,1.1.44,2.17.53,3.24.13,1.74-.44,2.47-2.14,2.67a5.53,5.53,0,0,0-2.72.74,2.94,2.94,0,0,1-1.9.17,21.68,21.68,0,0,1-3-.82,4.64,4.64,0,0,1-1-.6c-.05-.24-.09-.33-.07-.41.54-1.84,1.05-3.69,1.67-5.5.28-.82.81-1.55,1.17-2.34a2.6,2.6,0,0,0,.26-1.13,18.73,18.73,0,0,0-.34-5.11,14.33,14.33,0,0,1-.3-2.87c-.17-2.05-.85-4-.58-6.13.16-1.21.33-2.43.44-3.65a3.56,3.56,0,0,0-.34-2,4.07,4.07,0,0,1-.4-1.79,26.79,26.79,0,0,0-1.23-6.81c-.2-.76-.26-1.55-.41-2.33a7.59,7.59,0,0,0-.32-1,2.75,2.75,0,0,0-1.51,2.64,34.84,34.84,0,0,1-.52,5.1,14,14,0,0,1-.95,2.85,1.91,1.91,0,0,1-1.73,1.23,3.56,3.56,0,0,1-1.3-.14c-1.35-.43-2.69-.92-4.09-1.4a25.76,25.76,0,0,1-.78,2.84c-.34.88-.22,1.92-1.42,2.4a2.84,2.84,0,0,1-1.82-.06,7.37,7.37,0,0,1-2.7-5.86,7.27,7.27,0,0,1,.46-1.73c.07-.26.26-.49.27-.74.09-1.26.72-2.42.58-3.73a2.74,2.74,0,0,1,1.21-2.62c2.87-.74,3.48-.37,3.79,2.41h1c-.45-1.35-.86-2.53-1.25-3.72a17.33,17.33,0,0,1-.54-1.73,7.43,7.43,0,0,0-1.5-3.17c-1.4-1.65-1.69-3.69-1.91-5.75a7.64,7.64,0,0,0-.48-2.28c.63-1.38,1.29-2.74,1.87-4.14a2,2,0,0,0,0-1.25c-.25-.82-.67-1.6-.95-2.43a2.41,2.41,0,0,1,.14-2.27,3.66,3.66,0,0,0,.26-.65c-2.16-1.78-1.31-3.9-.68-5.9l-2.56-2.25a4,4,0,0,1,.2-.94,18.71,18.71,0,0,1,2.72-4.61,17.34,17.34,0,0,0,1.87-3.11,17.06,17.06,0,0,1,3.15-4.49,13.16,13.16,0,0,1,2.47-1.69,14.93,14.93,0,0,1,5.48-2l.07.06-.08-.05" transform="translate(-23.03 -102.13)"/><path d="M323.79,193.26c-.19.5-.38.92-.51,1.35a.9.9,0,0,0,.06.53,7.25,7.25,0,0,1,.25,3.52,3,3,0,0,1-.35.89c-.59,1.12-1.16,2.25-1.81,3.33a2.22,2.22,0,0,1-1.95,1,1.57,1.57,0,0,1-1.39-.68,17.16,17.16,0,0,1-2-3.35,10.49,10.49,0,0,1-.54-1.78c-.09-.32-.11-.67-.2-1a5.46,5.46,0,0,1,0-2.13c0-.26.28-.37.45-.48a.87.87,0,0,0,.06-.15,4,4,0,0,1,.88-2.56,3.66,3.66,0,0,0,.53-2,9.52,9.52,0,0,1,0-1.51,4.36,4.36,0,0,1,.28-.89,2.36,2.36,0,0,0,.12-.51,3.08,3.08,0,0,1,.94-2.13,1.64,1.64,0,0,1,.54-.48,14.91,14.91,0,0,1,1.65-.71,1.38,1.38,0,0,1,1.37.45,9.65,9.65,0,0,1,1,1.25c.07.09.13.19.24.36,1.54-1.43,3.25-2.27,5.49-1.5,0-.64,0-1.15-.08-1.66-.08-1.09-.16-2.17-.26-3.26-.05-.58-.18-1.16-.2-1.74-.05-2.8-.09-5.61-.13-8.41a43.43,43.43,0,0,1,.33-5.92,1.16,1.16,0,0,1,.1-.47c.38-.52-.11-.76-.07-1.4a4.18,4.18,0,0,1,.56-.93,1.69,1.69,0,0,0,.86-1.13,11.08,11.08,0,0,1,.94-3,4.5,4.5,0,0,0,.57-2.31,4,4,0,0,1,.48-2.4.49.49,0,0,0,.09-.28c-.06-.83-.14-1.67-.23-2.58-1.94.43-3.73,1.11-5.57,1a2.87,2.87,0,0,1-.9-1.85,4.68,4.68,0,0,1-.07-2.57,12.25,12.25,0,0,1,.82-1.81,25.34,25.34,0,0,0,2.06-5.46c.23-.83.58-1.63.88-2.44.15-.39.32-.78.48-1.19-.17-.18-.32-.35-.48-.5a1.52,1.52,0,0,1-.43-1.66c.24-.74.56-1.46.86-2.19.14-.33.36-.63.47-1a2.64,2.64,0,0,0,.11-.93,4.74,4.74,0,0,1,.18-1.66,12.92,12.92,0,0,1,.85-2.16c.18-.35.4-.69.62-1.08a4.77,4.77,0,0,1-.24-2.29,2.72,2.72,0,0,1,.08-.47c0-.05.08-.08.21-.18l.67,2.27.43-.64c.06-.57-.64-1.06-.07-1.7.1.26.17.46.24.67.4.11.5-.18.58-.44.16-.59.25-1.19.43-1.76a6.81,6.81,0,0,1,1.16-2.09,2,2,0,0,0,.43-1.17,4.29,4.29,0,0,1,1.07-2.54c.87-1,1.71-2.09,2.54-3.14a7.6,7.6,0,0,0,.46-.78,2.91,2.91,0,0,1,1.41-1.25,1.43,1.43,0,0,0,1-1,16.9,16.9,0,0,1,.83-1.85c.47-1,1.48-1.44,2.31-2a2.35,2.35,0,0,1,1.59-.42c.39,0,.79-.22,1.17-.2a8.25,8.25,0,0,1,4.63,1.46,6.21,6.21,0,0,1,1.7,1.49,3.61,3.61,0,0,0,.82.65c.25.31,0,.7,0,1.12a1,1,0,0,1,0,1.27,1.52,1.52,0,0,0-.13,1.28,3.61,3.61,0,0,0,.21.75,1.71,1.71,0,0,1-.08,1.57,2.33,2.33,0,0,0-.14,1,5.55,5.55,0,0,1-.61,2.79,21.65,21.65,0,0,0-1,2.33,16.42,16.42,0,0,1-.83,1.86,1.56,1.56,0,0,1-1.34.82c-.35,0-.71.09-1.09.14v.88c.37.21.77.48,1.2.68,1.17.54,2.37,1,3.51,1.58a17.75,17.75,0,0,1,2.37,1.43,2,2,0,0,1,.92,1.5,2.12,2.12,0,0,0,.12.41,2.91,2.91,0,0,1-.34,2.65,2.76,2.76,0,0,0-.46,1.65,5.93,5.93,0,0,1-.06.84c-.06.67-.15.78-.77,1a2.78,2.78,0,0,0-.42.18c.05.25.07.49.13.72.17.62.35,1.24.54,1.85a2.84,2.84,0,0,1-.35,2.27c-.39.72-.87,1.4-1.2,2.15a4.41,4.41,0,0,0-.34,2.71c.22,1.13.37,2.27.6,3.39.15.7.4,1.39.58,2.09a16,16,0,0,1,.58,3.51c0,.18,0,.36.05.54a2.21,2.21,0,0,0,.92,1.68,6,6,0,0,1,1.06,1.08,1.49,1.49,0,0,0,1.4.65,4.26,4.26,0,0,1,.63,0c.29.56.14.95-.43,1.06a10.53,10.53,0,0,1-1.26.11c-.15,0-.31,0-.57,0a15.57,15.57,0,0,1,1.34,8.53l-.25.18-.22.1-1.38-.75-1-2.35a1,1,0,0,0-.23,1.23c.18.57.4,1.14.56,1.72a4.57,4.57,0,0,1,.1.9,1,1,0,0,1,.31.91.77.77,0,0,0,.08.47,13.12,13.12,0,0,1,1,3.68c.21,1.13.48,2.26.58,3.39.11,1.29.07,2.58.06,3.87a3.41,3.41,0,0,1-.21.82,16.56,16.56,0,0,0-.72,6.33c0,.42.18.83.24,1.25a16.3,16.3,0,0,1,.15,2.21c0,1.67.27,3.34.35,5,.07,1.47,0,2.94.05,4.41,0,.1-.06.21,0,.3a5.72,5.72,0,0,1-.13,2.33c-.05.29-.2.55-.27.83a1.85,1.85,0,0,0-.07.77,2.56,2.56,0,0,1-.19,1.47,1.9,1.9,0,0,0-.15.46,28.77,28.77,0,0,0-.43,4.14c0,.81-.05,1.62-.06,2.42a2.24,2.24,0,0,0,.09.52l.75-.21a4.7,4.7,0,0,1,3,0,2.22,2.22,0,0,1,1.28,1.79,17.27,17.27,0,0,1,0,5.51,1,1,0,0,0-.56,1.2l-1.48.71a3,3,0,0,1-3.29.92c-.25.55-.52,1.1-.73,1.67a1,1,0,0,1-.72.74.55.55,0,0,0-.33.24c-.17.44-.55.55-1,.69l-.57-.2c-.46.48-1,.26-1.5.12a20.66,20.66,0,0,0-2.18-.47,2.15,2.15,0,0,1-1.64-1.74,4.15,4.15,0,0,1,.38-1.5c.13-.38.38-.71.51-1.08.27-.76.5-1.53.73-2.3a4.4,4.4,0,0,1,.95-1.92,2,2,0,0,0,.52-1.39c0-.84.1-1.69.13-2.53A21.1,21.1,0,0,0,352,208c-.2-1-.32-2-.51-3a16.06,16.06,0,0,0-.44-2.06,11.57,11.57,0,0,1-.32-4.38c.13-2.13.29-4.27.46-6.4a4.68,4.68,0,0,0-.49-2.27,21.3,21.3,0,0,1-.89-2.1,8.67,8.67,0,0,1-.43-2.07,7.14,7.14,0,0,0-.86-2.74c-.73-1.51-1.41-3.06-2.13-4.58a3.57,3.57,0,0,1-.37-1.2c0-.29-.29-.56-.39-.85-.21-.66-.37-1.35-.59-2-.38-1.18-.74-2.37-1.21-3.51a5.52,5.52,0,0,0-1.1-1.26c-.16.34-.28.55-.37.78-.47,1.17-1,2.32-1.39,3.52q-.76,2.39-1.35,4.81c-.45,1.88-.77,3.79-1.19,5.68-.29,1.3-.66,2.6-1,3.9a5.44,5.44,0,0,1-.15.7,3.1,3.1,0,0,1-1.48,1.9,2.12,2.12,0,0,0-.94,1.22,2.12,2.12,0,0,1-2.31,1.54,15.19,15.19,0,0,1-2.41-.51,4.51,4.51,0,0,0-2.56-.16c-.92.27-1.83.1-2.75.29a7,7,0,0,1-1.09,0" transform="translate(-23.03 -102.13)"/></svg>